<svg width="413" height="91" viewBox="0 0 413 91" fill="none" xmlns="http://www.w3.org/2000/svg">
<path d="M41.1875 0V91H29.3125V0H41.1875ZM70.4375 0V9.875H0.125V0H70.4375ZM160.95 81.1875V91H112.762V81.1875H160.95ZM115.2 0V91H103.137V0H115.2ZM154.575 39.125V48.9375H112.762V39.125H154.575ZM160.325 0V9.875H112.762V0H160.325ZM265.087 0V91H252.962L207.15 20.8125V91H195.087V0H207.15L253.15 70.375V0H265.087ZM337.413 0V91H325.538V0H337.413ZM366.663 0V9.875H296.35V0H366.663ZM412.3 0V91H400.237V0H412.3Z" fill="white"/>
</svg>
